<svg xmlns="http://www.w3.org/2000/svg" version="1.1" xmlns:xlink="http://www.w3.org/1999/xlink" xmlns:svgjs="http://svgjs.dev/svgjs" width="1440" height="560" preserveAspectRatio="none" viewBox="0 0 1440 560"><g mask="url(&quot;#SvgjsMask1415&quot;)" fill="none"><rect width="1440" height="560" x="0" y="0" fill="url(&quot;#SvgjsLinearGradient1416&quot;)"></rect><path d="M1536 560L0 560 L0 376.95Q27.42 332.37, 72 359.78Q98.62 266.4, 192 293.02Q258.98 240, 312 306.98Q361.61 284.59, 384 334.19Q421.1 251.29, 504 288.4Q577.13 241.53, 624 314.67Q694.34 265, 744 335.34Q787.8 307.14, 816 350.94Q881.81 296.75, 936 362.56Q940.28 294.84, 1008 299.12Q1038.38 257.5, 1080 287.88Q1146.86 282.74, 1152 349.6Q1198.18 323.79, 1224 369.97Q1242.1 316.07, 1296 334.17Q1366.73 284.9, 1416 355.63Q1453.51 273.14, 1536 310.65z" fill="#182f5d"></path><path d="M1488 560L0 560 L0 408.31Q66.3 354.61, 120 420.91Q150.94 331.85, 240 362.79Q288.58 339.37, 312 387.95Q362.09 366.04, 384 416.14Q417.1 329.24, 504 362.33Q581.09 319.42, 624 396.51Q636.77 337.28, 696 350.05Q766.09 300.13, 816 370.22Q877.67 359.89, 888 421.57Q937.43 351, 1008 400.44Q1030.94 351.38, 1080 374.32Q1110.68 333, 1152 363.68Q1215.37 355.05, 1224 418.42Q1266.21 388.63, 1296 430.84Q1303.1 365.94, 1368 373.04Q1435.89 320.94, 1488 388.83z" fill="#25467d"></path><path d="M1512 560L0 560 L0 481.21Q64.74 425.95, 120 490.69Q153.47 404.16, 240 437.63Q316.34 393.97, 360 470.31Q404.15 442.46, 432 486.6Q461.05 395.65, 552 424.71Q621.04 373.75, 672 442.8Q766.06 416.86, 792 510.92Q827.2 426.13, 912 461.33Q930.53 407.86, 984 426.39Q1068.86 391.25, 1104 476.1Q1160.78 460.88, 1176 517.66Q1180.79 450.45, 1248 455.24Q1293.62 380.86, 1368 426.47Q1426.05 412.52, 1440 470.58Q1497.22 455.8, 1512 513.03z" fill="#356cb1"></path><path d="M1536 560L0 560 L0 518.94Q23.19 470.13, 72 493.33Q149.88 451.21, 192 529.08Q274.16 491.24, 312 573.4Q320.34 509.74, 384 518.08Q436.51 450.6, 504 503.11Q587.93 467.04, 624 550.96Q670.31 525.27, 696 571.57Q739.69 543.26, 768 586.95Q793.45 492.4, 888 517.85Q969.74 479.59, 1008 561.32Q1077.05 510.37, 1128 579.41Q1142.4 521.81, 1200 536.21Q1226.8 491.01, 1272 517.81Q1328.58 502.39, 1344 558.97Q1351.42 494.39, 1416 501.82Q1483.99 449.81, 1536 517.8z" fill="rgba(14, 32, 94, 1)"></path></g><defs><mask id="SvgjsMask1415"><rect width="1440" height="560" fill="#ffffff"></rect></mask><linearGradient x1="15.28%" y1="-39.29%" x2="84.72%" y2="139.29%" gradientUnits="userSpaceOnUse" id="SvgjsLinearGradient1416"><stop stop-color="#0e2a47" offset="0"></stop><stop stop-color="rgba(79, 146, 232, 1)" offset="1"></stop></linearGradient></defs></svg>